<?xml version="1.0" encoding="UTF-8" standalone="no"?>
<!DOCTYPE svg PUBLIC "-//W3C//DTD SVG 1.1//EN" "http://www.w3.org/Graphics/SVG/1.1/DTD/svg11.dtd">
<svg width="100%" height="100%" viewBox="0 0 1068 91" version="1.1" xmlns="http://www.w3.org/2000/svg" xmlns:xlink="http://www.w3.org/1999/xlink" xml:space="preserve" xmlns:serif="http://www.serif.com/" style="fill-rule:evenodd;clip-rule:evenodd;">
    <g transform="matrix(0.569433,0,0,0.569433,2.04519,2.04519)">
        <circle cx="54" cy="54" r="49.25" style="fill:none;stroke:rgb(124,165,144);stroke-width:9.5px;"/>
    </g>
    <g transform="matrix(0.569433,0,0,0.569433,270.058,2.04519)">
        <circle cx="54" cy="54" r="49.25" style="fill:none;stroke:rgb(124,165,144);stroke-width:9.5px;"/>
    </g>
    <g transform="matrix(0.569433,0,0,0.569433,135.672,2.04519)">
        <circle cx="54" cy="54" r="49.25" style="fill:none;stroke:rgb(124,165,144);stroke-width:9.5px;"/>
    </g>
    <g transform="matrix(0.569433,0,0,0.569433,2.04519,2.04519)">
        <circle cx="171" cy="54" r="49.25" style="fill:none;stroke:rgb(124,165,144);stroke-width:9.5px;"/>
    </g>
    <g transform="matrix(0.569433,0,0,0.569433,270.058,2.04519)">
        <circle cx="171" cy="54" r="49.25" style="fill:none;stroke:rgb(124,165,144);stroke-width:9.5px;"/>
    </g>
    <g transform="matrix(0.569433,0,0,0.569433,135.672,2.04519)">
        <circle cx="171" cy="54" r="49.25" style="fill:none;stroke:rgb(124,165,144);stroke-width:9.5px;"/>
    </g>
    <g transform="matrix(0.569433,0,0,0.569433,2.04519,2.04519)">
        <circle cx="112.5" cy="104" r="49.25" style="fill:none;stroke:rgb(124,165,144);stroke-width:9.5px;"/>
    </g>
    <g transform="matrix(0.569433,0,0,0.569433,270.058,2.04519)">
        <circle cx="112.5" cy="104" r="49.25" style="fill:none;stroke:rgb(124,165,144);stroke-width:9.5px;"/>
    </g>
    <g transform="matrix(0.569433,0,0,0.569433,135.672,2.04519)">
        <circle cx="112.5" cy="104" r="49.25" style="fill:none;stroke:rgb(124,165,144);stroke-width:9.5px;"/>
    </g>
    <g transform="matrix(0.569433,0,0,0.569433,2.04519,2.04519)">
        <circle cx="229.5" cy="104" r="49.25" style="fill:none;stroke:rgb(124,165,144);stroke-width:9.5px;"/>
    </g>
    <g transform="matrix(0.569433,0,0,0.569433,270.058,2.04519)">
        <circle cx="229.5" cy="104" r="49.25" style="fill:none;stroke:rgb(124,165,144);stroke-width:9.5px;"/>
    </g>
    <g transform="matrix(0.569433,0,0,0.569433,135.672,2.04519)">
        <circle cx="229.5" cy="104" r="49.25" style="fill:none;stroke:rgb(124,165,144);stroke-width:9.5px;"/>
    </g>
    <g transform="matrix(0.569433,0,0,0.569433,470.499,2.04519)">
        <circle cx="171" cy="54" r="49.25" style="fill:none;stroke:rgb(124,165,144);stroke-width:9.5px;"/>
    </g>
    <g transform="matrix(0.569433,0,0,0.569433,403.685,2.04519)">
        <circle cx="112.5" cy="104" r="49.25" style="fill:none;stroke:rgb(124,165,144);stroke-width:9.5px;"/>
    </g>
    <g transform="matrix(0.569433,0,0,0.569433,403.685,2.04519)">
        <circle cx="229.5" cy="104" r="49.25" style="fill:none;stroke:rgb(124,165,144);stroke-width:9.5px;"/>
    </g>
    <g transform="matrix(0.569433,0,0,0.569433,403.685,2.04519)">
        <circle cx="54" cy="54" r="49.25" style="fill:none;stroke:rgb(124,165,144);stroke-width:9.5px;"/>
    </g>
    <g transform="matrix(0.569433,0,0,0.569433,403.685,2.04519)">
        <circle cx="171" cy="54" r="49.25" style="fill:none;stroke:rgb(124,165,144);stroke-width:9.5px;"/>
    </g>
    <g id="Artboard1" transform="matrix(3.12256,0,0,0.575949,0,0)">
        <rect x="0" y="0" width="342" height="158" style="fill:none;"/>
        <clipPath id="_clip1">
            <rect x="0" y="0" width="342" height="158"/>
        </clipPath>
        <g clip-path="url(#_clip1)">
            <g transform="matrix(0.182361,0,0,0.988686,172.309,3.55099)">
                <circle cx="54" cy="54" r="49.25" style="fill:none;stroke:rgb(124,165,144);stroke-width:9.5px;"/>
            </g>
            <g transform="matrix(0.182361,0,0,0.988686,258.14,3.55099)">
                <circle cx="54" cy="54" r="49.25" style="fill:none;stroke:rgb(124,165,144);stroke-width:9.5px;"/>
            </g>
            <g transform="matrix(0.182361,0,0,0.988686,215.103,3.55099)">
                <circle cx="54" cy="54" r="49.25" style="fill:none;stroke:rgb(124,165,144);stroke-width:9.5px;"/>
            </g>
            <g transform="matrix(0.182361,0,0,0.988686,172.309,3.55099)">
                <circle cx="171" cy="54" r="49.25" style="fill:none;stroke:rgb(124,165,144);stroke-width:9.5px;"/>
            </g>
            <g transform="matrix(0.182361,0,0,0.988686,258.14,3.55099)">
                <circle cx="171" cy="54" r="49.25" style="fill:none;stroke:rgb(124,165,144);stroke-width:9.5px;"/>
            </g>
            <g transform="matrix(0.182361,0,0,0.988686,215.103,3.55099)">
                <circle cx="171" cy="54" r="49.25" style="fill:none;stroke:rgb(124,165,144);stroke-width:9.5px;"/>
            </g>
            <g transform="matrix(0.182361,0,0,0.988686,172.309,3.55099)">
                <circle cx="112.5" cy="104" r="49.25" style="fill:none;stroke:rgb(124,165,144);stroke-width:9.5px;"/>
            </g>
            <g transform="matrix(0.182361,0,0,0.988686,258.14,3.55099)">
                <circle cx="112.5" cy="104" r="49.25" style="fill:none;stroke:rgb(124,165,144);stroke-width:9.5px;"/>
            </g>
            <g transform="matrix(0.182361,0,0,0.988686,215.103,3.55099)">
                <circle cx="112.5" cy="104" r="49.25" style="fill:none;stroke:rgb(124,165,144);stroke-width:9.5px;"/>
            </g>
            <g transform="matrix(0.182361,0,0,0.988686,172.309,3.55099)">
                <circle cx="229.5" cy="104" r="49.25" style="fill:none;stroke:rgb(124,165,144);stroke-width:9.5px;"/>
            </g>
            <g transform="matrix(0.182361,0,0,0.988686,258.14,3.55099)">
                <circle cx="229.5" cy="104" r="49.25" style="fill:none;stroke:rgb(124,165,144);stroke-width:9.5px;"/>
            </g>
            <g transform="matrix(0.182361,0,0,0.988686,215.103,3.55099)">
                <circle cx="229.5" cy="104" r="49.25" style="fill:none;stroke:rgb(124,165,144);stroke-width:9.5px;"/>
            </g>
            <g transform="matrix(0.182361,0,0,0.988686,300.934,3.55099)">
                <circle cx="112.5" cy="104" r="49.25" style="fill:none;stroke:rgb(124,165,144);stroke-width:9.5px;"/>
            </g>
            <g transform="matrix(0.182361,0,0,0.988686,300.934,3.55099)">
                <circle cx="54" cy="54" r="49.25" style="fill:none;stroke:rgb(124,165,144);stroke-width:9.5px;"/>
            </g>
            <g transform="matrix(0.182361,0,0,0.988686,300.934,3.55099)">
                <circle cx="171" cy="54" r="49.25" style="fill:none;stroke:rgb(124,165,144);stroke-width:9.5px;"/>
            </g>
        </g>
    </g>
</svg>
