<svg xmlns="http://www.w3.org/2000/svg" width="100%" height="100%" viewBox="0 0 1920 134" fill-rule="evenodd" stroke-linejoin="round" stroke-miterlimit="2" xmlns:v="https://vecta.io/nano"><g transform="matrix(1 0 0 1.07249 0 -26.6123)"><clipPath id="A"><path d="M0 24.814h1920v124.16H0z"/></clipPath><g clip-path="url(#A)"><path d="M1920 27.135v121.838H0V33.876c34.843 14.187 65.94 77.425 98.085 76.954 39.646-.581 75.283-85.081 114.726-80.923s81.282 105.121 121.934 105.87 83.17-97.217 121.978-101.376 73.109 77.179 110.869 76.429 76.001-83.817 115.689-80.923 81.394 98.504 122.438 98.287 83.652-96.692 123.831-99.586 78.1 82.284 117.25 82.222 75.16-87.706 117.64-82.598c42.49 5.11 91.08 113.659 137.28 113.252 46.19-.407 94.4-110.587 139.89-115.696a34.73 34.73 0 0 1 3.87-.214c44.22 0 88.74 82.782 129.17 85.257 41.62 2.547 78.34-75.732 116.66-69.76 38.31 5.971 73.28 107.648 113.24 105.59 36.62-1.886 75.2-114.849 115.45-119.524z" fill="#a66868"/></g></g></svg>