<?xml version="1.0" encoding="UTF-8" standalone="no"?>
<!DOCTYPE svg PUBLIC "-//W3C//DTD SVG 1.1//EN" "http://www.w3.org/Graphics/SVG/1.1/DTD/svg11.dtd">
<svg width="100%" height="100%" viewBox="0 0 1920 134" version="1.1" xmlns="http://www.w3.org/2000/svg" xmlns:xlink="http://www.w3.org/1999/xlink" xml:space="preserve" xmlns:serif="http://www.serif.com/" style="fill-rule:evenodd;clip-rule:evenodd;stroke-linejoin:round;stroke-miterlimit:2;">
    <g transform="matrix(1,0,0,1.13603,0,-28.2372)">
        <path d="M1920,27.135L1920,148.973L0,148.973L0,33.876C34.843,48.063 65.94,111.301 98.085,110.83C137.731,110.249 173.368,25.749 212.811,29.907C252.254,34.065 294.093,135.028 334.745,135.777C375.397,136.526 417.915,38.56 456.723,34.401C495.531,30.242 529.832,111.58 567.592,110.83C605.352,110.08 643.593,27.013 683.281,29.907C722.969,32.801 764.675,128.411 805.719,128.194C846.763,127.977 889.371,31.502 929.55,28.608C969.729,25.714 1007.65,110.892 1046.8,110.83C1085.95,110.768 1121.96,23.124 1164.44,28.232C1206.93,33.342 1255.52,141.891 1301.72,141.484C1347.91,141.077 1396.12,30.897 1441.61,25.788C1442.89,25.645 1444.19,25.573 1445.48,25.574C1489.7,25.574 1534.22,108.356 1574.65,110.831C1616.27,113.378 1652.99,35.099 1691.31,41.071C1729.62,47.042 1764.59,148.719 1804.55,146.661C1841.17,144.775 1879.75,31.812 1920,27.137L1920,27.135Z" style="fill:hsl(0, 0%, 90%);"/>
    </g>
</svg>
