<?xml version="1.0" encoding="UTF-8" standalone="no"?>
<!DOCTYPE svg PUBLIC "-//W3C//DTD SVG 1.1//EN" "http://www.w3.org/Graphics/SVG/1.1/DTD/svg11.dtd">
<svg width="100%" height="100%" viewBox="0 0 1920 134" version="1.1" xmlns="http://www.w3.org/2000/svg" xmlns:xlink="http://www.w3.org/1999/xlink" xml:space="preserve" xmlns:serif="http://www.serif.com/" style="fill-rule:evenodd;clip-rule:evenodd;stroke-linejoin:round;stroke-miterlimit:2;">
    <g id="Artboard2" transform="matrix(1,0,0,1.07249,0,-26.6123)">
        <rect x="0" y="24.814" width="1920" height="124.16" style="fill:none;"/>
        <clipPath id="_clip1">
            <rect x="0" y="24.814" width="1920" height="124.16"/>
        </clipPath>
        <g clip-path="url(#_clip1)">
            <g transform="matrix(1,0,0,0.932412,0,24.8137)">
                <path d="M1920,2.49L1920,133.16L0,133.16L0,9.719C34.843,24.934 65.94,92.756 98.085,92.251C137.731,91.628 173.368,1.003 212.811,5.462C252.254,9.921 294.093,118.203 334.745,119.006C375.397,119.81 417.915,14.742 456.723,10.282C495.531,5.823 529.832,93.055 567.592,92.251C605.352,91.448 643.593,2.358 683.281,5.462C722.969,8.566 764.675,111.106 805.719,110.874C846.764,110.642 889.371,7.173 929.55,4.069C969.73,0.965 1007.65,92.318 1046.8,92.251C1085.95,92.184 1121.96,-1.813 1164.44,3.666C1206.93,9.146 1255.52,125.564 1301.72,125.127C1347.91,124.69 1396.12,6.524 1441.61,1.044C1442.9,0.889 1444.19,0.814 1445.48,0.814C1489.7,0.814 1534.22,89.597 1574.65,92.251C1616.27,94.983 1652.99,11.029 1691.31,17.434C1729.62,23.838 1764.59,132.885 1804.55,130.678C1841.17,128.655 1879.75,7.504 1920,2.49Z" style="fill:hsl(0, 0%, 90%);"/>
            </g>
        </g>
    </g>
</svg>
