<svg xmlns="http://www.w3.org/2000/svg" width="100%" height="100%" viewBox="0 0 2481 2439" fill-rule="evenodd" stroke-linejoin="round" stroke-miterlimit="2">
	<path d="M1239.825-2C556.777-2 3.002 551.744 3.002 1234.828c0 585.505 406.933 1076.028 953.403 1204.166-434.261-232.316-611.328-765.026-401.927-1211.255 33.846 176.217 148.731 333.228 320.382 414.709-223.884-523.641-59.032-1139.223 403.001-1479.661-90.903 311.221 48.698 595.995 348.143 811.001 342.518 245.892 356.999 747.651 54.721 1018.889 120.083-27.951 231.789-94.069 315.222-195.296-51.48 265.228-217.778 505.2-472.764 641.613 546.503-128.138 953.406-618.662 953.406-1204.166 0-683.086-553.714-1236.83-1236.766-1236.83m136.17 2120.846c-33.19-12.343-89.008-13.471-136.199 24.932-47.192-38.402-103.02-37.275-136.199-24.932-27.735 10.324-49.495 17.226-90.364 16.873 40.49 84.412 126.755 142.629 226.564 142.629s186.074-58.216 226.564-142.629c-40.869.353-62.63-6.549-90.364-16.873" fill="#d6c278" fill-rule="nonzero"/>
</svg>